<svg width="352" height="289" viewBox="0 0 352 289" fill="none"
     xmlns="http://www.w3.org/2000/svg">
  <path d="M253.6 177.6C243.2 119.5 181.8 109 139.9 101.9L139.1 101.8C110.2 96.7 101 92.7 101 85.3C101 76.2 115.3 72.2 129.5 72.2C158 72.2 177.9 79.2 194.1 94.8C195.1 95.7 196.4 96.3 197.8 96.2C199.2 96.1 200.4 95.5 201.3 94.5L243.6 46.5C244.5 45.4 245 44.1 244.8 42.7C244.6 41.3 243.9 40 242.8 39.2C218.5 21.5 179.1 0.299988 129 0.299988C93.1999 0.299988 62.8999 9.69998 41.3999 27.6C21.3999 44.2 10.3999 67.3 10.3999 92.6C10.3999 123.4 23.3999 146.4 48.9999 160.9C70.5999 173.1 98.0999 177.8 120.3 181.6L123.3 182.1C148.8 186.2 164.7 190.6 164.7 200.2C164.7 205.7 160.7 215 134 215C106.6 215 76.7999 203.6 55.9999 185.1C54.9999 184.2 53.6999 183.8 52.3999 183.9C51.0999 184 49.7999 184.6 48.9999 185.6L1.79995 239.8C-4.66108e-05 241.9 0.199953 245 2.29995 246.8C31.1 272.2 81.0999 288.7 129.6 288.7C140.5 288.7 150.9 287.9 160.8 286.4L253.6 177.6Z"
        fill="black"/>
  <path d="M349 273.9L283.9 200.1C278.4 193.8 269.3 193.8 263.8 200.1L198.7 273.9C193.6 279.6 197.9 288.4 205.7 288.4H341.8C349.8 288.5 354 279.7 349 273.9Z"
        fill="#16BAC5"/>
</svg>
