<svg width="173" height="173" viewBox="0 0 173 173" fill="none" xmlns="http://www.w3.org/2000/svg">
<path d="M151.203 105.995C145.005 71.3083 108.317 65.0375 83.3032 60.7673L82.8076 60.6837C65.5683 57.6379 60.0328 55.249 60.0328 50.8355C60.0328 45.4187 68.5779 42.994 77.0453 42.994C94.0636 42.994 105.953 47.1507 115.602 56.4673C116.187 57.0347 116.988 57.3333 117.788 57.2975C118.6 57.2617 119.364 56.9033 119.902 56.2882L145.16 27.5976C145.716 26.9705 145.979 26.1404 145.883 25.3043C145.793 24.4742 145.358 23.7157 144.683 23.226C130.184 12.6313 106.627 0 76.7108 0C55.3155 0 37.2342 5.63776 24.4257 16.2982C12.483 26.2419 5.90252 40.0139 5.90252 55.0878C5.90252 73.4762 13.6533 87.1884 28.946 95.8482C41.8381 103.152 58.2892 105.947 71.5038 108.193L73.2893 108.497C88.5341 110.934 97.9808 113.598 97.9808 119.325C97.9808 122.622 95.5983 128.146 79.6547 128.146C63.3231 128.146 45.4866 121.308 33.108 110.307C32.5168 109.781 31.7405 109.519 30.9404 109.56C30.1462 109.608 29.4058 109.978 28.8863 110.576L0.731302 142.933C-0.343542 144.169 -0.218166 146.039 1.00596 147.12C18.2154 162.307 48.0603 172.119 77.0333 172.119C83.554 172.119 89.7702 171.654 95.652 170.77L151.203 105.995Z" fill="white"/>
<path d="M208.14 163.519L169.297 119.468C166 115.73 160.602 115.73 157.306 119.468L118.462 163.519C115.441 166.947 117.985 172.185 122.666 172.185H203.942C208.618 172.191 211.162 166.947 208.14 163.519Z" fill="#60C6AF"/>
</svg>
