<svg version="1.1" id="Layer_1" xmlns="http://www.w3.org/2000/svg" x="0" y="0" viewBox="0 0 96 34" xml:space="preserve"><style>.st0{fill:#fff}</style><switch><g><path class="st0" d="M46 30.9h-7.4c-.1 0-.2 0-.3-.1l-4.6-5.7-1 1.1v4.4c0 .2-.2.4-.4.4h-6c-.2 0-.4-.2-.4-.4V8.7c0-.1 0-.2.1-.2l4.3-4.9c.1-.1.2-.1.3-.1h1.7c.1 0 .2 0 .2.1.1.1.1.2.1.2v14l5.5-6.1c.1-.1.2-.1.3-.1h7.2c.1 0 .3.1.3.2.1.1 0 .3-.1.4l-7.6 8.6 7.9 9.7c.1.1.1.3 0 .4s0 0-.1 0zM53.3 30.9h-6c-.2 0-.4-.2-.4-.4V11.9c0-.2.2-.4.4-.4h6c.2 0 .4.2.4.4v18.7c0 .2-.2.3-.4.3zM61.9 30.9h-6c-.2 0-.4-.2-.4-.4V8.7c0-.1 0-.2.1-.2l4.4-5c.1-.1.2-.1.3-.1H62c.2 0 .4.2.4.4v26.8c-.1.2-.3.3-.5.3zM64.7 30.9c-.1 0-.2 0-.2-.1-.1-.1-.1-.2-.1-.3V3.8c0-.2.2-.4.4-.4h6c.2 0 .4.2.4.4v22c0 .1 0 .2-.1.2l-4.2 4.8c-.1.1-.2.1-.3.1h-1.9zM16.2 31c-3.4 0-7-1.2-9-3-.1-.1-.2-.3 0-.5l3.3-3.8c.1-.1.1-.1.2-.1s.2 0 .3.1c1.5 1.3 3.6 2.1 5.5 2.1s2.2-.7 2.2-1c0-.7-1.1-1-2.9-1.3h-.2c-1.6-.3-3.5-.6-5-1.5-1.8-1-2.7-2.6-2.7-4.8 0-1.8.8-3.4 2.2-4.6 1.5-1.3 3.7-1.9 6.2-1.9 3.5 0 6.3 1.5 8 2.7.1.1.1.1.1.2s0 .2-.1.3l-3 3.4c-.1.1-.2.1-.2.1-.1 0-.2 0-.3-.1-1.1-1.1-2.5-1.6-4.6-1.6-1 0-2 .3-2 .9 0 .5.7.8 2.7 1.2h.1c1.6.3 3.6.6 5.2 1.5 1.9 1.1 2.9 2.8 2.9 5.1 0 1.9-.8 3.6-2.4 4.7-1.6 1.3-3.9 1.9-6.5 1.9zM80.7 31c-3.4 0-7-1.2-9-3-.1-.1-.2-.3 0-.5l3.3-3.8c.1-.1.1-.1.2-.1s.2 0 .3.1c1.5 1.3 3.6 2.1 5.5 2.1s2.2-.7 2.2-1c0-.7-1.1-1-2.9-1.3h-.2c-1.6-.3-3.5-.6-5-1.5-1.8-1-2.7-2.6-2.7-4.8 0-1.8.8-3.4 2.2-4.6 1.5-1.3 3.7-1.9 6.2-1.9 3.5 0 6.3 1.5 8 2.7.1.1.1.1.1.2s0 .2-.1.3l-3 3.4c-.1.1-.2.1-.2.1-.1 0-.2 0-.3-.1-1.1-1.1-2.5-1.6-4.6-1.6-1 0-2 .3-2 .9 0 .5.7.8 2.7 1.2h.1c1.6.3 3.6.6 5.2 1.5 1.9 1.1 2.9 2.8 2.9 5.1 0 1.9-.8 3.6-2.4 4.7-1.6 1.3-3.8 1.9-6.5 1.9z"/><path d="M40.6 9l5.6-6.4c.4-.4 1-.4 1.4 0L53.3 9c.4.5.1 1.2-.6 1.2H41.2c-.7 0-1-.7-.6-1.2z" fill="#60c6af"/></g></switch></svg>